# xmcd
#
# Track frame offsets:
#	150
#	13357
#	29389
#	44847
#	60765
#	75651
#	86915
#	101307
#	119016
#	137380
#	151980
#
# Disc length: 2267 seconds
#
# Revision: 0
# Processed by: cddbd v1.5.1PL0 Copyright (c) Steve Scherf et al.
# Submitted via: dBpowerAMP V4.0
#
DISCID=8908d90b
DTITLE=zz top - tres hombres
DYEAR=1900
DGENRE=
TTITLE0=waitin' for the bus
TTITLE1=jesus just left chicago
TTITLE2=beer drinkers and hell raisers
TTITLE3=master of sparks
TTITLE4=hot , blue and righteous
TTITLE5=move me on down the lne
TTITLE6=precious and grace
TTITLE7=la grange
TTITLE8=shiek
TTITLE9=have you heard
TTITLE10=11
EXTD=
EXTT0=
EXTT1=
EXTT2=
EXTT3=
EXTT4=
EXTT5=
EXTT6=
EXTT7=
EXTT8=
EXTT9=
EXTT10=
PLAYORDER=
